<?xml version="1.0" encoding="UTF-8"?><svg id="Layer_2" xmlns="http://www.w3.org/2000/svg" viewBox="0 0 314.53 78.92"><defs><style>.cls-1{fill:#fff;stroke-width:0px;}</style></defs><g id="Layer_1-2"><path class="cls-1" d="m77.79,22.31h12.01c2,0,3.54.5,4.61,1.49,1.07.99,1.61,2.22,1.61,3.68,0,1.23-.38,2.28-1.15,3.16-.51.59-1.26,1.05-2.24,1.39,1.49.36,2.59.97,3.29,1.85.7.87,1.05,1.97,1.05,3.29,0,1.08-.25,2.04-.75,2.9-.5.86-1.18,1.54-2.05,2.04-.54.31-1.35.54-2.44.68-1.44.19-2.4.28-2.87.28h-11.07v-20.76Zm6.47,8.14h2.79c1,0,1.7-.17,2.09-.52.39-.34.59-.84.59-1.49,0-.6-.2-1.08-.59-1.42-.39-.34-1.07-.51-2.05-.51h-2.83v3.94Zm0,8.16h3.27c1.1,0,1.88-.2,2.34-.59s.68-.92.68-1.58c0-.61-.22-1.11-.67-1.48-.45-.37-1.23-.56-2.36-.56h-3.26v4.21Z"/><path class="cls-1" d="m101.96,22.31h6.43v20.76h-6.43v-20.76Z"/><path class="cls-1" d="m124.79,35.55v-4.32h9.91v8.85c-1.9,1.29-3.58,2.17-5.03,2.64-1.46.47-3.19.7-5.19.7-2.46,0-4.47-.42-6.02-1.26-1.55-.84-2.76-2.09-3.61-3.75-.85-1.66-1.28-3.57-1.28-5.72,0-2.27.47-4.24,1.4-5.91s2.3-2.95,4.11-3.82c1.41-.67,3.3-1,5.68-1s4.01.21,5.15.62c1.14.42,2.08,1.06,2.83,1.93.75.87,1.31,1.98,1.69,3.32l-6.19,1.1c-.25-.78-.69-1.38-1.3-1.8-.61-.42-1.39-.62-2.33-.62-1.41,0-2.53.49-3.36,1.46-.83.98-1.25,2.52-1.25,4.64,0,2.25.42,3.85,1.27,4.81.84.96,2.02,1.44,3.53,1.44.72,0,1.4-.1,2.05-.31.65-.21,1.4-.56,2.24-1.06v-1.95h-4.29Z"/><path class="cls-1" d="m139.88,22.31h12.01c2,0,3.54.5,4.61,1.49,1.07.99,1.61,2.22,1.61,3.68,0,1.23-.38,2.28-1.15,3.16-.51.59-1.26,1.05-2.24,1.39,1.49.36,2.59.97,3.29,1.85.7.87,1.05,1.97,1.05,3.29,0,1.08-.25,2.04-.75,2.9-.5.86-1.18,1.54-2.05,2.04-.54.31-1.35.54-2.44.68-1.44.19-2.4.28-2.87.28h-11.07v-20.76Zm6.47,8.14h2.79c1,0,1.7-.17,2.09-.52.39-.34.59-.84.59-1.49,0-.6-.2-1.08-.59-1.42-.39-.34-1.07-.51-2.05-.51h-2.83v3.94Zm0,8.16h3.27c1.1,0,1.88-.2,2.34-.59s.68-.92.68-1.58c0-.61-.22-1.11-.67-1.48-.45-.37-1.23-.56-2.36-.56h-3.26v4.21Z"/><path class="cls-1" d="m163.79,22.31h6.42v15.65h10.01v5.11h-16.43v-20.76Z"/><path class="cls-1" d="m183.19,32.71c0-3.39.94-6.03,2.83-7.92s4.52-2.83,7.89-2.83,6.12.93,7.99,2.78c1.87,1.85,2.8,4.45,2.8,7.79,0,2.43-.41,4.42-1.22,5.97s-2,2.76-3.54,3.62c-1.54.86-3.47,1.3-5.77,1.3s-4.28-.37-5.81-1.12c-1.53-.75-2.78-1.93-3.73-3.54s-1.43-3.63-1.43-6.06Zm6.42.03c0,2.1.39,3.6,1.17,4.52.78.92,1.84,1.37,3.18,1.37s2.45-.45,3.2-1.34c.75-.9,1.13-2.51,1.13-4.83,0-1.95-.39-3.38-1.18-4.28s-1.86-1.35-3.21-1.35-2.33.46-3.12,1.37c-.78.92-1.17,2.43-1.17,4.54Z"/><path class="cls-1" d="m223.34,34.57l5.62,1.7c-.38,1.58-.97,2.89-1.79,3.95-.81,1.06-1.82,1.85-3.02,2.39-1.2.54-2.74.81-4.59.81-2.26,0-4.1-.33-5.53-.98-1.43-.66-2.66-1.81-3.7-3.46-1.04-1.65-1.56-3.76-1.56-6.34,0-3.43.91-6.07,2.74-7.92,1.83-1.84,4.41-2.77,7.75-2.77,2.62,0,4.67.53,6.17,1.59,1.5,1.06,2.61,2.68,3.33,4.87l-5.66,1.26c-.2-.63-.41-1.09-.62-1.39-.36-.49-.8-.87-1.32-1.13-.52-.26-1.1-.4-1.74-.4-1.45,0-2.57.58-3.34,1.75-.58.87-.88,2.23-.88,4.09,0,2.3.35,3.88,1.05,4.73.7.85,1.68,1.28,2.95,1.28s2.16-.34,2.78-1.03c.63-.69,1.08-1.69,1.37-3Z"/><path class="cls-1" d="m233.47,22.31h6.41v7.84l6.72-7.84h8.53l-7.58,7.84,7.92,12.92h-7.9l-4.38-8.54-3.31,3.47v5.07h-6.41v-20.76Z"/><path class="cls-1" d="m77.87,53.31h9.53c1.88,0,3.4.25,4.55.76,1.16.51,2.11,1.24,2.87,2.2.76.95,1.3,2.06,1.64,3.33.34,1.27.51,2.61.51,4.02,0,2.22-.25,3.94-.76,5.16-.51,1.22-1.21,2.25-2.1,3.07s-1.86,1.38-2.89,1.65c-1.41.38-2.68.57-3.82.57h-9.53v-20.76Zm6.41,4.7v11.34h1.57c1.34,0,2.29-.15,2.86-.45.57-.3,1.01-.82,1.33-1.56s.48-1.94.48-3.6c0-2.2-.36-3.71-1.08-4.52-.72-.81-1.91-1.22-3.57-1.22h-1.6Z"/><path class="cls-1" d="m113.22,70.64h-7.28l-1.01,3.43h-6.55l7.8-20.76h7l7.8,20.76h-6.72l-1.04-3.43Zm-1.33-4.49l-2.29-7.46-2.27,7.46h4.56Z"/><path class="cls-1" d="m120.92,53.31h19.5v5.13h-6.54v15.63h-6.41v-15.63h-6.54v-5.13Z"/><path class="cls-1" d="m155.48,70.64h-7.28l-1.01,3.43h-6.55l7.8-20.76h7l7.8,20.76h-6.72l-1.04-3.43Zm-1.33-4.49l-2.29-7.46-2.27,7.46h4.56Z"/><path class="cls-1" d="m191.49,65.57l5.62,1.7c-.38,1.58-.97,2.89-1.79,3.95-.81,1.06-1.82,1.85-3.02,2.39-1.2.54-2.74.81-4.59.81-2.26,0-4.1-.33-5.53-.98-1.43-.66-2.66-1.81-3.7-3.46-1.04-1.65-1.56-3.76-1.56-6.34,0-3.43.91-6.07,2.74-7.92,1.83-1.84,4.41-2.77,7.75-2.77,2.62,0,4.67.53,6.17,1.59,1.5,1.06,2.61,2.68,3.33,4.87l-5.66,1.26c-.2-.63-.41-1.09-.62-1.39-.36-.49-.8-.87-1.32-1.13-.52-.26-1.1-.4-1.74-.4-1.45,0-2.57.58-3.34,1.75-.58.87-.88,2.23-.88,4.09,0,2.3.35,3.88,1.05,4.73.7.85,1.68,1.28,2.95,1.28s2.16-.34,2.78-1.03c.63-.69,1.08-1.69,1.37-3Z"/><path class="cls-1" d="m201.58,53.31h17.19v4.43h-10.76v3.3h9.98v4.23h-9.98v4.09h11.07v4.7h-17.5v-20.76Z"/><path class="cls-1" d="m223.94,53.31h5.99l7.82,11.49v-11.49h6.05v20.76h-6.05l-7.77-11.4v11.4h-6.03v-20.76Z"/><path class="cls-1" d="m247.96,53.31h19.5v5.13h-6.54v15.63h-6.42v-15.63h-6.54v-5.13Z"/><path class="cls-1" d="m271.71,53.31h17.19v4.43h-10.76v3.3h9.98v4.23h-9.98v4.09h11.07v4.7h-17.5v-20.76Z"/><path class="cls-1" d="m294.11,74.07v-20.76h10.69c1.98,0,3.5.17,4.54.51s1.89.97,2.54,1.89c.64.92.96,2.04.96,3.36,0,1.15-.25,2.14-.74,2.98-.49.83-1.17,1.51-2.03,2.03-.55.33-1.3.6-2.25.82.76.25,1.32.51,1.67.76.24.17.58.53,1.03,1.09s.75.99.9,1.29l3.11,6.01h-7.25l-3.43-6.34c-.43-.82-.82-1.35-1.16-1.6-.46-.32-.99-.48-1.57-.48h-.57v8.42h-6.44Zm6.44-12.35h2.7c.29,0,.86-.09,1.7-.28.42-.08.77-.3,1.04-.65.27-.35.4-.75.4-1.2,0-.67-.21-1.18-.64-1.54-.43-.36-1.22-.54-2.39-.54h-2.82v4.22Z"/><polygon class="cls-1" points="18.78 33.65 6.07 46.14 0 73.54 16.79 56.79 18.78 33.65"/><polygon class="cls-1" points=".27 78.92 14.87 78.92 16.25 62.97 .27 78.92"/><polygon class="cls-1" points="21.18 52.4 32.83 40.77 32.83 19.85 23.17 29.34 21.18 52.4"/><polygon class="cls-1" points="18.89 78.92 32.83 78.92 32.83 46.42 20.64 58.58 18.89 78.92"/><polygon class="cls-1" points="20.6 12.64 11.37 22.16 7.65 38.97 19.31 27.52 20.6 12.64"/><polygon class="cls-1" points="32.83 14.24 32.83 0 25.01 8.08 23.7 23.21 32.83 14.24"/><polygon class="cls-1" points="46.88 33.65 59.6 46.14 65.67 73.54 48.88 56.79 46.88 33.65"/><polygon class="cls-1" points="65.39 78.92 50.79 78.92 49.42 62.97 65.39 78.92"/><polygon class="cls-1" points="44.49 52.4 32.83 40.77 32.83 19.85 42.49 29.34 44.49 52.4"/><polygon class="cls-1" points="46.78 78.92 32.83 78.92 32.83 46.42 45.02 58.58 46.78 78.92"/><polygon class="cls-1" points="45.07 12.64 54.29 22.16 58.01 38.97 46.35 27.52 45.07 12.64"/><polygon class="cls-1" points="32.83 14.24 32.83 0 40.66 8.08 41.97 23.21 32.83 14.24"/></g></svg>