<svg xmlns="http://www.w3.org/2000/svg" viewBox="0 0 223.29 50.94"><defs><style>.cls-1{fill:#fff;}</style></defs><g id="Layer_2" data-name="Layer 2"><g id="Layer_1-2" data-name="Layer 1"><path class="cls-1" d="M70.09,28.51V25.42h8.7v9.89a13.48,13.48,0,0,1-3.72,2.28,15.11,15.11,0,0,1-6.06,1,12.83,12.83,0,0,1-6.69-1.69A11.6,11.6,0,0,1,58,32.3a14,14,0,0,1-1.54-6.62,14.3,14.3,0,0,1,.89-5.07,12.92,12.92,0,0,1,2.55-4.16,11.45,11.45,0,0,1,3.94-2.81,12.43,12.43,0,0,1,5.07-1,11.76,11.76,0,0,1,4.52.78,11,11,0,0,1,3.14,1.91,12.26,12.26,0,0,1,2,2.18L76,19.66a12.22,12.22,0,0,0-1.52-1.75,8.3,8.3,0,0,0-2.27-1.5,7.69,7.69,0,0,0-3.23-.61,8.27,8.27,0,0,0-4.71,1.33,8.74,8.74,0,0,0-3,3.57,11.36,11.36,0,0,0-1.06,4.95A10.57,10.57,0,0,0,61.3,30.7a8.83,8.83,0,0,0,3.19,3.44,8.67,8.67,0,0,0,4.63,1.24,11.65,11.65,0,0,0,3.68-.5,8.18,8.18,0,0,0,2.57-1.32V28.51Z"/><path class="cls-1" d="M84.58,38V13.23H92.5a10.15,10.15,0,0,1,5,1.08,6.53,6.53,0,0,1,2.74,2.75,7.73,7.73,0,0,1,.83,3.46,7.94,7.94,0,0,1-1.11,4.2,6.74,6.74,0,0,1-3.46,2.71L102.35,38h-4L93,27.88H88V38ZM88,24.86H92.8a4.82,4.82,0,0,0,3.49-1.15,4.1,4.1,0,0,0,1.19-3.08,4.06,4.06,0,0,0-1.26-3.18,5,5,0,0,0-3.5-1.13H88Z"/><path class="cls-1" d="M106.88,38V13.23h3.57V38Z"/><path class="cls-1" d="M116.47,38V13.23h8.29a17.3,17.3,0,0,1,7,1.32,10.4,10.4,0,0,1,4.76,4.07,13.09,13.09,0,0,1,1.73,7.06,12.82,12.82,0,0,1-1.73,6.92,10.48,10.48,0,0,1-4.78,4.08,17.09,17.09,0,0,1-7,1.34ZM120,34.83h4.61a10.56,10.56,0,0,0,7.23-2.29c1.72-1.52,2.58-3.79,2.58-6.78s-.83-5.34-2.51-6.93-4.14-2.4-7.41-2.4H120Z"/><path class="cls-1" d="M143.23,38V13.23h3.57V34.86h12.9V38Z"/><path class="cls-1" d="M164,38V13.23h15.61v3.16h-12V23.6h9.07v3.2h-9.07v8h12.93V38Z"/><path class="cls-1" d="M183.3,34.31,185.83,32a16.36,16.36,0,0,0,1.63,1.56,8.24,8.24,0,0,0,2.18,1.3,7.23,7.23,0,0,0,2.84.52,5.85,5.85,0,0,0,3.83-1.13,3.7,3.7,0,0,0,1.37-3,3.43,3.43,0,0,0-1.54-3.09,13.61,13.61,0,0,0-4.52-1.63,11,11,0,0,1-5.14-2.44,6,6,0,0,1-2-4.7,6.4,6.4,0,0,1,.93-3.36,6.71,6.71,0,0,1,2.78-2.49,10,10,0,0,1,4.58-1,10.6,10.6,0,0,1,4,.65,8,8,0,0,1,2.47,1.47,9,9,0,0,1,1.27,1.34l-2.38,2.19a7.43,7.43,0,0,0-1-1,7.25,7.25,0,0,0-1.8-1.06,6.9,6.9,0,0,0-2.69-.46,5.41,5.41,0,0,0-2.57.54,3.67,3.67,0,0,0-1.48,1.34,3.07,3.07,0,0,0-.49,1.65A3,3,0,0,0,189.62,22,14.87,14.87,0,0,0,194,23.56a14.23,14.23,0,0,1,3.53,1.29,7.45,7.45,0,0,1,2.73,2.41,7.12,7.12,0,0,1,1.06,4.07,6.46,6.46,0,0,1-1.15,3.79A8,8,0,0,1,197,37.71a10.17,10.17,0,0,1-4.46.94,11.64,11.64,0,0,1-4.1-.67,10.73,10.73,0,0,1-3.09-1.69A13.59,13.59,0,0,1,183.3,34.31Z"/><path class="cls-1" d="M205.3,34.31,207.83,32a17.53,17.53,0,0,0,1.63,1.56,8.24,8.24,0,0,0,2.18,1.3,7.26,7.26,0,0,0,2.84.52,5.83,5.83,0,0,0,3.83-1.13,3.68,3.68,0,0,0,1.38-3,3.43,3.43,0,0,0-1.55-3.09,13.63,13.63,0,0,0-4.51-1.63,11,11,0,0,1-5.15-2.44,6,6,0,0,1-2-4.7,6.4,6.4,0,0,1,.93-3.36,6.68,6.68,0,0,1,2.79-2.49,10,10,0,0,1,4.57-1,10.69,10.69,0,0,1,4,.65,8.27,8.27,0,0,1,2.47,1.47,9.4,9.4,0,0,1,1.26,1.34l-2.38,2.19a7.86,7.86,0,0,0-1-1,7.25,7.25,0,0,0-1.8-1.06,7,7,0,0,0-2.7-.46,5.37,5.37,0,0,0-2.56.54,3.7,3.7,0,0,0-1.49,1.34,3.15,3.15,0,0,0-.48,1.65A3,3,0,0,0,211.62,22,15.09,15.09,0,0,0,216,23.56a14.23,14.23,0,0,1,3.53,1.29,7.38,7.38,0,0,1,2.73,2.41,7,7,0,0,1,1.06,4.07,6.39,6.39,0,0,1-1.15,3.79A8.06,8.06,0,0,1,219,37.71a10.2,10.2,0,0,1-4.46.94,11.66,11.66,0,0,1-4.11-.67,10.67,10.67,0,0,1-3.08-1.69A13.24,13.24,0,0,1,205.3,34.31Z"/><path class="cls-1" d="M18.05,7l4,2.33,4-2.33V2.32L22.07,0l-4,2.32Z"/><path class="cls-1" d="M0,17.34l4,2.32,4-2.32V12.71L4,10.4,0,12.71Z"/><path class="cls-1" d="M0,38.17l4,2.31,4-2.31V33.54L4,31.23,0,33.54Z"/><path class="cls-1" d="M18.06,48.63l4,2.31,4-2.31V44l-4-2.32-4,2.32Z"/><path class="cls-1" d="M36.12,38.17l4,2.31,4-2.31V33.54l-4-2.31-4,2.31Z"/><path class="cls-1" d="M36.12,17.34l4,2.32,4-2.32V12.71l-4-2.31-4,2.31Z"/><path class="cls-1" d="M19.06,16.75l3,1.74,3-1.74V13.28l-3-1.74-3,1.74Z"/><path class="cls-1" d="M28.1,22l3,1.74,3-1.74V18.5l-3-1.74-3,1.74Z"/><path class="cls-1" d="M28.07,32.37l3,1.74,3-1.74V28.9l-3-1.74-3,1.74Z"/><path class="cls-1" d="M19.06,37.59l3,1.74,3-1.74V34.12l-3-1.74-3,1.74Z"/><path class="cls-1" d="M10,32.37l3,1.74,3-1.74V28.9l-3-1.74L10,28.9Z"/><path class="cls-1" d="M10,22l3,1.74,3-1.74V18.5l-3-1.74L10,18.5Z"/></g></g></svg>