<?xml version="1.0" encoding="UTF-8"?><svg id="Layer_2" xmlns="http://www.w3.org/2000/svg" viewBox="0 0 47.08 11.62"><defs><style>.cls-1{fill:#fff;}</style></defs><g id="Layer_1-2"><g><path class="cls-1" d="M12.28,10.71c-.08-1.06-.3-2.26-1.23-3.23,0,0,0,0,0,0,.17-.11,.33-.21,.48-.32,.47-.36,.73-.84,.73-1.35,0-.51-.26-.99-.73-1.35-.15-.12-.33-.23-.53-.33-.7-.36-1.5-.56-2.44-.62-.2-.01-.21-.02-.21-.23,0-.87-.02-1.75-.05-2.64-.02-.54-.2-.64-.7-.64-.37,0-.74,0-1.11,0-.72,0-1.44,0-2.16,0C3.21-.02,2.23,.43,1.47,1.34,.52,2.49,.04,3.88,0,5.61c-.03,1.72,.41,3.2,1.32,4.41,.8,1.06,1.86,1.59,3.09,1.56,.78-.02,1.57,0,2.34,.02,.33,0,.66,.02,.99,.02h.02c.45,0,.73-.26,.77-.72,0-.09,.01-.18,.02-.27,.01-.16,.02-.32,.05-.48,.12-.81,.36-1.36,.76-1.78,.16-.16,.35-.26,.54-.26h0c.19,0,.37,.09,.52,.25,.14,.15,.28,.35,.4,.59,.28,.53,.43,1.14,.45,1.87,0,.2,.07,.34,.18,.44,.11,.09,.24,.12,.42,.09,.45-.07,.41-.46,.4-.64Zm-3.89-3.71c0-.41,0-.82,0-1.22,0-.34,0-.69,0-1.03,0-.12,0-.16,0-.17,.02,0,.06,0,.18,0,.61,.07,1.4,.19,2.1,.6,.35,.21,.6,.37,.6,.67,0,.28-.24,.43-.6,.64-.65,.37-1.37,.51-2.26,.61,0-.02,0-.05,0-.1Zm-1.12,.05c0,.06,0,.07,0,.05-1.11-.07-1.92-.29-2.6-.73-.04-.03-.09-.06-.13-.09-.19-.15-.29-.29-.29-.42,0-.12,.08-.26,.25-.41,.16-.15,.37-.28,.59-.39,.55-.27,1.18-.42,2.04-.5,.02,0,.03,0,.04,0,.06,0,.08,.01,.08,.01,0,0,.02,.02,.02,.12,0,.28,0,.55,0,.83v1.53Zm0-3.77c0,.06,0,.15,0,.2-.05,0-.13,.01-.2,.02-1.03,.08-1.85,.28-2.56,.63-.25,.13-.46,.26-.64,.4-.41,.34-.64,.77-.65,1.22-.01,.43,.18,.85,.54,1.18,.38,.35,.85,.62,1.31,.78,.58,.19,1.18,.28,1.77,.37l.22,.03c.22,.03,.22,.07,.22,.21,0,.69-.01,1.39,0,2.08,0,.08-.01,.11,0,.11,0,0-.04,.01-.13,.01-.37,0-.75,0-1.12,0h-.46s-.33,0-.33,0c-.25,0-.51,0-.76,0-1.04,.05-1.87-.39-2.53-1.36-1.27-1.87-1.25-4.9,.05-6.75,.62-.89,1.41-1.32,2.4-1.32,.04,0,.07,0,.11,0,.55,.02,1.11,.01,1.66,0,.3,0,.61,0,.91,0,.14,0,.18,.01,.18,0,0,.01,.02,.05,.02,.2,0,.56,0,1.13,0,1.69v.28Z"/><g><path class="cls-1" d="M29.15,10.53h-6.01c-.77,0-1.49-.11-2.15-.34-.66-.23-1.23-.56-1.7-1-.48-.44-.85-.97-1.12-1.6-.27-.62-.41-1.34-.41-2.14,0-.75,.14-1.43,.41-2.06,.28-.62,.65-1.16,1.13-1.61,.48-.45,1.04-.8,1.68-1.04,.64-.25,1.33-.37,2.07-.37s1.43,.13,2.07,.38c.64,.25,1.2,.6,1.68,1.05,.48,.45,.85,.98,1.13,1.6,.27,.62,.41,1.3,.41,2.05,0,.35-.04,.7-.12,1.04-.08,.34-.2,.65-.36,.95-.16,.3-.36,.57-.62,.81s-.55,.43-.88,.58v.03h2.77v1.68Zm-9.11-5.08c0,.43,.08,.83,.24,1.2,.16,.37,.38,.7,.65,.97s.59,.49,.96,.65c.36,.16,.76,.24,1.18,.24s.81-.08,1.18-.24c.36-.16,.68-.38,.96-.65,.27-.28,.49-.6,.65-.97,.16-.37,.24-.78,.24-1.2s-.08-.83-.24-1.2c-.16-.37-.38-.7-.65-.97-.28-.28-.6-.49-.96-.65-.36-.16-.76-.24-1.18-.24s-.81,.08-1.18,.24c-.36,.16-.68,.38-.96,.65s-.49,.6-.65,.97c-.16,.37-.24,.77-.24,1.2Z"/><path class="cls-1" d="M30.23,.62h3.84c.5,0,.98,.05,1.44,.15,.45,.1,.85,.26,1.19,.49s.61,.54,.81,.92c.2,.39,.3,.87,.3,1.45,0,.7-.18,1.29-.55,1.79s-.9,.8-1.6,.93l2.52,4.19h-2.62l-2.07-3.96h-1.08v3.96h-2.18V.62Zm2.18,4.1h1.29c.2,0,.4,0,.62-.02,.22-.01,.42-.06,.6-.13,.18-.07,.32-.18,.44-.33,.12-.15,.18-.36,.18-.63,0-.25-.05-.45-.15-.6-.1-.15-.23-.26-.39-.34-.16-.08-.34-.13-.55-.16-.21-.03-.41-.04-.6-.04h-1.43v2.25Z"/><path class="cls-1" d="M39.3,.62h3.7c.43,0,.86,.03,1.29,.09s.82,.18,1.17,.36c.35,.18,.62,.44,.84,.76,.21,.33,.32,.76,.32,1.3s-.16,1.02-.47,1.39c-.31,.37-.73,.63-1.24,.79v.03c.33,.05,.62,.14,.89,.27,.27,.14,.5,.31,.69,.52s.34,.46,.44,.74,.15,.58,.15,.9c0,.52-.11,.96-.34,1.31s-.51,.63-.87,.85c-.35,.21-.75,.37-1.2,.46-.44,.09-.88,.14-1.32,.14h-4.06V.62Zm2.18,3.96h1.58c.17,0,.33-.02,.5-.06,.16-.04,.31-.1,.44-.18s.24-.2,.32-.34c.08-.14,.12-.31,.12-.5s-.04-.38-.13-.51c-.09-.14-.2-.24-.34-.32-.14-.07-.3-.13-.48-.16-.18-.03-.35-.05-.52-.05h-1.48v2.11Zm0,4.1h1.96c.17,0,.34-.02,.51-.06s.33-.1,.47-.2c.14-.09,.25-.21,.34-.36s.13-.33,.13-.55c0-.23-.06-.42-.18-.57-.12-.14-.26-.25-.44-.33-.18-.07-.37-.13-.57-.15-.21-.03-.4-.04-.57-.04h-1.65v2.25Z"/></g></g></g></svg>