<?xml version="1.0" encoding="UTF-8"?><svg id="Layer_2" xmlns="http://www.w3.org/2000/svg" viewBox="0 0 866 499.55"><defs><style>.cls-1{fill:#fff;stroke-width:0px;}</style></defs><g id="Layer_1-2"><path class="cls-1" d="m722.43,402.52c0-16.31.15-32.61-.1-48.92-.06-4.04,1.23-5.26,4.98-4.77,1.47.19,3.02.22,4.48,0,4.53-.7,7.63.83,9.14,5.31,1.03,3.07,2.88,3.72,5.43,1.5,9.47-8.26,20.93-7.2,32.15-6.58,4.19.23,7.72,3.15,10.91,5.62,6.75,5.24,12.96,6.03,19.63.08,9.05-8.07,20.25-6.01,30.85-5.75,4.26.1,7.63,3.8,11.38,5.89,4.75,2.65,11.25,4.23,13.53,8.66,2.18,4.23.66,10.4.67,15.71.02,24.13-.08,48.25.11,72.38.03,3.79-.97,4.93-4.67,4.6-3.8-.33-7.68-.4-11.47,0-4.04.44-4.52-1.28-4.5-4.77.14-26.29-.04-52.58.19-78.87.04-4.41-1.05-5.62-5.48-5.47-10.14.36-20.3.28-30.45.03-3.75-.09-5,.71-4.97,4.79.21,26.45.03,52.91.19,79.37.02,3.76-.72,5.39-4.8,4.9-5.22-.62-12.26,2.23-15.24-1.16-2.59-2.95-.83-9.8-.83-14.93-.04-22.79-.12-45.59.08-68.38.03-3.84-1.05-4.68-4.71-4.59-10.48.26-20.97.29-31.45-.03-3.88-.12-4.68,1.1-4.66,4.73.15,26.45.01,52.91.15,79.37.02,3.68-.61,5.44-4.77,5.01-3.79-.39-7.67-.33-11.47-.01-3.47.29-4.45-.76-4.41-4.32.2-16.47.09-32.94.09-49.42Z"/><path class="cls-1" d="m386.19,402.69c0-16.47.09-32.94-.08-49.41-.04-3.47.92-4.91,4.44-4.45,1.47.19,3.02.21,4.48,0,4.82-.7,8.32.61,10.08,5.58.62,1.76,1.66,3.94,4.27,1.77,8.65-7.18,18.84-7.38,29.51-7.58,9.79-.18,17.71,2.93,26.15,7.33,9.05,4.72,12.41,10.18,12.01,20.64-.95,25.08-.38,50.23-.22,75.35.02,3.51-.86,4.62-4.37,4.34-4.13-.32-8.33-.29-12.47,0-3.34.23-4.13-.96-4.12-4.19.13-26.45-.07-52.9.2-79.35.05-4.77-1.44-5.63-5.79-5.54-12.97.28-25.96.27-38.93,0-3.87-.08-4.58,1.09-4.56,4.71.16,26.45.03,52.9.15,79.35.02,3.56-.4,5.57-4.69,5.02-5.2-.67-12.25,2.24-15.21-1.19-2.59-2.99-.82-9.81-.84-14.94-.05-12.48-.02-24.95-.02-37.43Z"/><path class="cls-1" d="m688.43,404.18c0,16.13-.1,32.26.08,48.39.04,3.53-.55,5.36-4.52,4.69-1.62-.27-3.36-.27-4.98,0-4.75.78-7.97-.78-9.56-5.47-.87-2.59-2.51-3.36-4.78-1.46-12.51,10.52-27.49,6.34-41.59,6.62-4.1.08-7.59-3.79-11.32-5.93-4.6-2.63-10.93-4.42-13.16-8.43-2.34-4.22-.81-10.64-.81-16.1-.03-23.95.06-47.9-.1-71.84-.02-3.6.67-5.15,4.61-4.77,3.96.38,8,.35,11.96,0,3.69-.32,4.33,1.15,4.31,4.5-.13,26.44.02,52.88-.17,79.32-.03,4.05.8,5.39,5.1,5.29,12.97-.3,25.95-.24,38.92,0,3.97.07,5.3-.82,5.27-5.11-.22-26.27-.01-52.55-.21-78.83-.03-4.14,1.01-5.57,5.19-5.18,3.96.37,7.99.3,11.96.01,3.15-.22,3.89.85,3.86,3.9-.15,16.8-.07,33.59-.07,50.39Z"/><path class="cls-1" d="m238.23,403.55c0,16.47-.11,32.94.09,49.41.04,3.54-.92,4.8-4.4,4.29-1.63-.24-3.36-.25-4.98,0-4.55.71-7.59-.92-9.26-5.24-1-2.59-2.58-3.7-5.14-1.61-7.97,6.53-17.29,6.82-27.13,7.07-10.59.27-19.35-2.71-28.57-7.66-8.71-4.67-11.39-10.01-11.1-19.66.76-25.27.32-50.57.18-75.86-.02-3.39.65-4.75,4.3-4.43,3.96.35,8,.32,11.97,0,3.53-.28,4.43.9,4.41,4.39-.15,25.79-.07,51.57-.1,77.36-.01,9.02-.19,7.19,7.05,7.23,12.31.07,24.63-.22,36.94.15,4.63.14,5.44-1.37,5.4-5.61-.2-26.12,0-52.24-.22-78.36-.03-4.17,1.03-5.6,5.19-5.16,3.29.35,6.68.34,9.97,0,4.16-.42,5.64.6,5.54,5.25-.35,16.13-.14,32.27-.14,48.41Z"/><path class="cls-1" d="m542.61,320.16c0,9.24.1,17.7-.06,26.17-.05,2.77.68,3.79,3.59,3.69,5.98-.21,11.98.08,17.96-.11,2.9-.09,4.34.5,3.98,3.78-.52,4.73,2.03,11.07-1.01,13.79-2.63,2.36-8.84.8-13.47.83-10.98.05-10.98.02-10.98,11.08,0,17.96.11,35.92-.12,53.88-.05,3.81,1.04,4.83,4.73,4.63,5.8-.32,11.64,0,17.46-.15,2.55-.06,3.54.7,3.39,3.39-.26,4.8,1.56,10.91-.76,14.07-2.24,3.05-8.75.35-13.3,1.04-6.5,1-11.5-2.15-16.61-5.22-5.12-3.08-12.21-5-14.83-9.52-2.61-4.5-.79-11.6-.8-17.56-.03-17.13-.12-34.26.08-51.39.04-3.56-.98-4.86-4.43-4.25-.48.09-1,0-1.49,0-15.06-.01-15.55-.65-13.65-15.97.25-2.02,1.02-2.44,2.8-2.41,4.32.08,8.65-.1,12.97.07,2.67.11,4.35-.56,3.68-3.53-2.63-11.62,2.94-18.19,13.23-22.12,2.43-.93,4.61-2.51,7.63-4.2Z"/><path class="cls-1" d="m88.89,460.61c-1.48-2.49-1.56-3.71,1.28-5.21,6.17-3.24,12.05-7.04,18.18-10.35,2.52-1.36,3.43-2.97,3.42-5.85-.1-38.44-.09-76.89,0-115.33,0-2.49-.74-3.88-2.93-5.08-5.97-3.26-11.87-6.69-17.67-10.25-2.65-1.63-5.3-2.36-8.43-2.32-11.65.14-23.37.88-34.94-.14-16.32-1.44-30.79,2.12-43.75,12.05-.13.1-.29.17-.44.23-2.88,1.1-3.64,3.14-3.61,6.2.15,18.97.08,37.94.07,56.92,0,18.97.07,37.94-.08,56.92-.03,3.36.77,5.43,3.95,7.05,5.62,2.86,11,6.19,16.38,9.49,2.64,1.62,5.28,2.4,8.43,2.35,10.32-.17,20.64.06,30.96-.14,3.04-.06,4.8.79,6.25,3.53,3.89,7.33,8.06,14.51,12.17,21.72,3.12,5.47,5.11,13.01,9.84,15.75,4.76,2.75,12.3.55,18.61.83,3.75.17,4.38-.65,2.41-3.97-6.79-11.42-13.31-22.99-20.11-34.4Zm-63.89-22.38c-3.18.02-3.8-.91-3.79-3.9.11-35.11.12-70.22-.02-105.32-.01-3.27,1.08-3.75,3.98-3.74,20.47.12,40.94.14,61.41-.02,3.19-.02,3.82.99,3.8,3.95-.13,17.64-.06,35.27-.07,52.91,0,17.3-.08,34.61.07,51.91.03,3.09-.53,4.24-3.97,4.21-20.47-.18-40.94-.17-61.41,0Z"/><path class="cls-1" d="m347.39,361.23c-4.51-2.07-8.8-4.69-12.94-7.45-4.32-2.88-8.8-4.08-14.02-3.91-9.3.31-18.63-.02-27.94.14-4.41.08-10.29-2-12.83.9-2.18,2.48-.37,8.25-.87,12.49-.52,4.42,1.31,5.07,5.25,5.01,14.47-.24,28.94-.02,43.41-.18,3.16-.03,4.48.66,4.26,4.08-.29,4.64-.07,9.31-.07,13.96,0,7.89-.02,8.23-7.75,7.81-18.78-1.01-37.16-.77-52.54,12.43-.13.11-.26.23-.41.28-2.48.79-2.97,2.54-2.93,4.98.14,8.15.42,16.32-.08,24.44-.32,5.22,1.43,8.11,6.09,10.3,5.09,2.39,9.76,5.64,14.67,8.43,1.7.96,3.22,2.31,5.41,2.29,11.97-.12,24.36,2.02,34.58-6.95,1.82-1.6,3.76-1.35,5.87.02,3.33,2.17,6.84,4.1,10.37,5.92,5.16,2.66,7.18,1.44,7.18-4.13,0-13.64,0-27.27,0-40.91,0-13.8-.16-27.61.1-41.41.08-4.13-.84-6.72-4.81-8.55Zm-15.7,74.31c.05,2.62-.9,3.47-3.49,3.41-6.14-.15-12.29-.05-18.44-.05v-.02c-5.81,0-11.63-.11-17.44.05-2.53.07-3.53-.62-3.46-3.31.17-6.64.15-13.29.01-19.93-.05-2.41.76-3.14,3.13-3.12,12.13.08,24.25.03,36.38-.01,2.15,0,3.37.47,3.31,3.06-.15,6.64-.13,13.29,0,19.93Z"/><path class="cls-1" d="m433,281.25c-77.54,0-140.62-63.08-140.62-140.62S355.46,0,433,0s140.62,63.08,140.62,140.62-63.08,140.62-140.62,140.62Zm0-274.25c-73.68,0-133.62,59.94-133.62,133.62s59.94,133.62,133.62,133.62,133.62-59.94,133.62-133.62S506.68,7,433,7Z"/><path class="cls-1" d="m399.66,154.1c-39.57,0-71.76-32.19-71.76-71.76S360.1,10.59,399.66,10.59s71.76,32.19,71.76,71.76-32.19,71.76-71.76,71.76Zm0-136.52c-35.71,0-64.76,29.05-64.76,64.76s29.05,64.76,64.76,64.76,64.76-29.05,64.76-64.76-29.05-64.76-64.76-64.76Z"/><path class="cls-1" d="m467.92,154.1c-39.57,0-71.76-32.19-71.76-71.76S428.35,10.59,467.92,10.59s71.76,32.19,71.76,71.76-32.19,71.76-71.76,71.76Zm0-136.52c-35.71,0-64.76,29.05-64.76,64.76s29.05,64.76,64.76,64.76,64.76-29.05,64.76-64.76-29.05-64.76-64.76-64.76Z"/><path class="cls-1" d="m501.5,210.67c-39.57,0-71.76-32.19-71.76-71.76s32.19-71.76,71.76-71.76,71.76,32.19,71.76,71.76-32.19,71.76-71.76,71.76Zm0-136.52c-35.71,0-64.76,29.05-64.76,64.76s29.05,64.76,64.76,64.76,64.76-29.05,64.76-64.76-29.05-64.76-64.76-64.76Z"/><path class="cls-1" d="m467.92,271.18c-39.57,0-71.76-32.19-71.76-71.76s32.19-71.76,71.76-71.76,71.76,32.19,71.76,71.76-32.19,71.76-71.76,71.76Zm0-136.52c-35.71,0-64.76,29.05-64.76,64.76s29.05,64.76,64.76,64.76,64.76-29.05,64.76-64.76-29.05-64.76-64.76-64.76Z"/><path class="cls-1" d="m398.28,271.18c-39.57,0-71.76-32.19-71.76-71.76s32.19-71.76,71.76-71.76,71.76,32.19,71.76,71.76-32.19,71.76-71.76,71.76Zm0-136.52c-35.71,0-64.76,29.05-64.76,64.76s29.05,64.76,64.76,64.76,64.76-29.05,64.76-64.76-29.05-64.76-64.76-64.76Z"/><path class="cls-1" d="m364.13,212.38c-39.57,0-71.76-32.19-71.76-71.76s32.19-71.76,71.76-71.76,71.76,32.19,71.76,71.76-32.19,71.76-71.76,71.76Zm0-136.52c-35.71,0-64.76,29.05-64.76,64.76s29.05,64.76,64.76,64.76,64.76-29.05,64.76-64.76-29.05-64.76-64.76-64.76Z"/></g></svg>