<?xml version="1.0" encoding="UTF-8"?><svg id="Layer_2" xmlns="http://www.w3.org/2000/svg" viewBox="0 0 968.4 296.69"><defs><style>.cls-1{fill:#fff;}</style></defs><g id="Layer_1-2"><g id="Spez95"><g><path class="cls-1" d="M119.09,295.4c-.2-31.43-1.16-62.89-.25-94.28,.41-14.12-3.36-25.49-13.01-34.94-15.63-15.32-22.41-33.05-20.19-55.28,1.7-17.02,.21-34.34,.4-51.52,.06-5.37-1.09-9.13-5.96-12.6-11.47-8.18-15.19-22.36-9.79-33.15C75.45,3.33,86.99-1.88,99.09,.62c12.63,2.61,19.37,11.86,19.5,26.75,.01,1.26-.04,2.51-.06,3.77-1.84,6.69-4.8,13.45-11.4,15.71-8.6,2.94-9.42,8.4-9.22,16.04,.44,16.36,1.57,32.9-.22,49.08-2.25,20.33,6.04,35.09,19.24,48.87,9.41,9.82,14.93,20.73,14.18,35.78-1.5,29.74-.62,59.6-.36,89.41,.08,8.79-2.34,12.99-11.66,9.37ZM79.56,24.34c-.19,9.72,5.22,13.95,13.01,14.41,8.83,.52,14.47-4.7,14.39-13.5-.07-7.75-4.57-13.51-13.03-13.75-8.98-.26-13.51,5.05-14.37,12.84Z"/><path class="cls-1" d="M146.15,205.28c0-26.45,.02-52.9-.01-79.36,0-5.31,0-9.19-6.92-12.24-11.01-4.85-15.05-19.45-11.29-31.66,3.67-11.92,13.34-15.57,24.24-16.2,11.82-.68,20.09,5.39,24.01,16.48,4.24,12.01,.48,23.51-11.34,29.97-6.83,3.73-6.58,8.55-6.58,14.33,.01,52.48,.02,104.97-.03,157.45,0,3.71,1.04,7.86-1.6,10.91-1.03,1.2-3.91,1.46-5.79,1.16-5.33-.85-4.41-5.54-4.43-8.99-.16-27.29-.09-54.58-.09-81.87-.06,0-.11,0-.17,0Zm19.84-113.02c-.12-9.19-4.35-14.75-12.54-15.04-8.53-.3-14.03,4.97-14.78,13.61-.74,8.47,3.79,13.24,12.33,13.67,9.08,.46,13.68-4.45,14.99-12.24Z"/><path class="cls-1" d="M184.14,295.14c-6.94,2.55-10.49,.14-10.51-7.26-.04-16.79,0-33.57-.06-50.36-.01-3.54,.89-6.2,4.09-8.44,3.04-2.12,5.28-5.36,7.94-8.04q29.07-29.37,27.22-70.99c-.21-4.67-.18-8.94-5.68-11.37-10.94-4.84-15.03-14.18-13.79-25.52,1.09-9.94,6.56-17.41,16.69-19.67,10.62-2.38,20.94-2,28,8.39,.69,1.02,1.63,1.88,2.45,2.81,2.15,9.63,1.36,18.96-2.84,27.94,0,0-.47,.53-.47,.53-11.02,2.78-14.77,9.63-13.91,20.99,1.09,14.43,.51,28.98,.66,43.48-.57,.33-.74,.81-.51,1.43-9.77,9.17-19.17,18.77-29.43,27.35-7.24,6.06-9.31,13.26-9.28,22.1,.06,15.54-.36,31.08-.58,46.62Zm35.77-164.02c8.95-1.06,14.53-6.19,14.06-15.62-.43-8.67-5.98-13.98-14.74-13.91-9.63,.09-14.68,6.48-14.35,15.47,.31,8.43,5.52,13.8,15.03,14.06Z"/><path class="cls-1" d="M680.28,171.34c-12.74,3.59-15.74-2.22-15.13-14.01,.45-8.75,4.49-22.16-9.69-22.86-13.47-.66-8.7,13.48-11.75,21.2-.44,1.11-.62,2.6-.26,3.69,4.34,13.03-3.62,13.6-12.92,12.87-.34-3.31-.68-6.62-1.02-9.93,.01-7.54,.02-15.09,.03-22.63,.11-2.08,.56-4.2,.29-6.23-1.63-12.17,1.75-15.54,15.06-13.04,20.04,3.77,40.67,5.12,61.23,2.88,1.41,1.36,2.82,2.72,4.23,4.07,8.87,13.95,5.89,29.36,5.47,44.46-1.59,.21-3.18,.42-4.77,.62-.84,.02-1.67,.04-2.51,.06-2.18-.66-4.37-1.33-6.55-1.99-.25-8.8-.57-17.6-.72-26.4-.12-7.48-4.85-10.49-11.25-10.48-6.91,.02-8.85,5.52-9.14,11.3-.44,8.79-.42,17.61-.6,26.42Z"/><path class="cls-1" d="M928.43,169.53c-16.11-15.26-17.36-32.74-2.61-43.58,6.75-4.96,14.4-9.04,22.94-3.2,1.93,1.32,3.86,1.85,5.8,.75,12.6-7.17,13.07,.71,13.06,10.11-.01,12.1,.5,24.2,.78,36.3-.16,1.61-.32,3.21-.48,4.82-8.21,20.82-18.14,28.16-34.13,24.6-4.63-1.03-11.73-2.14-10.79-8.1,1.08-6.84,6.9-5.81,12.9-4.05,7.67,2.24,15.51,1.24,17.68-8.55,.63-2.84,2.97-6.75-.19-9.26-2.55-2.03-5.57-.26-8.07,1.39-5.92,3.91-11.14-2.09-16.84-1.17l-.06-.05Zm12.63-37.84c-8.1,.89-13.08,5.5-12.99,13.75,.1,8.71,5.41,14.43,14.08,14.32,8.03-.11,13.12-5.76,13.04-13.82-.08-8.49-4.63-14.04-14.13-14.25Z"/><path class="cls-1" d="M594.4,171.23c-4.74,.12-9.48,.24-14.22,.37-.13-8.37-.54-16.74-.3-25.1,.2-7.01-3.64-12.68-9.32-12.85-6.75-.2-11.99,4.82-11.65,13.1,.2,5.01-.35,10.07,.02,15.06,.34,4.53-.83,8.1-4.35,10.91-.86-.1-1.72-.19-2.58-.29-.4-.64-.81-1.28-1.21-1.92-.42,.63-.84,1.27-1.25,1.9-1.68-.03-3.37-.06-5.05-.09-1.05-13.44-2.1-26.89-3.15-40.33,.29-4.04,.58-8.08,.86-12.12,1.62-.26,3.24-.52,4.86-.77,3.35,.19,6.69,.37,10.04,.56,1.66,1.75,3.33,3.21,5.2,.22,.79-.27,1.59-.55,2.38-.82,22.09,.89,29.79,8.74,30.33,30.82,.1,4.17,.35,8.33,.53,12.49,0,1.65-.02,3.3-.03,4.96-.37,1.3-.73,2.61-1.1,3.91Z"/><path class="cls-1" d="M506.64,172.89c-23.57-3.12-29.14-10.59-28.22-37.87,.71-.44,.81-.95,.33-1.54,1.86-.68,2.8-1.98,2.7-3.98,6.16-6.5,13.51-10.46,22.65-10.6,7.5,4.64,15.14,.36,22.71,.34,1.89,1.84,5.24,2.38,5.26,5.89-2.32,11.18-.52,22.5-1.16,33.74-.27,4.81,1.56,10.33-4.1,13.54-.85,0-1.69-.01-2.54-.02-.84,.01-1.69,.03-2.53,.04-1.65-.02-3.3-.03-4.95-.05-.81,.04-1.62,.07-2.44,.11-2.57,.14-5.14,.27-7.71,.41Zm-15.16-27.93c-.4,8.89,4.51,13.85,12.56,13.85,7.62,0,12.2-5.72,12.35-13.18,.15-7.62-4.3-12.76-12.25-12.85-7.74-.08-12.31,4.18-12.66,12.18Z"/><path class="cls-1" d="M853.15,168.71c2.56-.11,4.38-2.35,3.78-3.94-5-13.31,2.31-26.95-1.36-40.22,.47-1.54,.94-3.08,1.41-4.62,10.09,2.09,20.3-1.61,30.66,1.79,11.67,3.83,17.57,11.25,17.44,22.67-.1,8.83,3.4,18.28-2.64,26.59-3.59-.47-7.18-.94-10.77-1.4,.12-8.32,.63-16.66,.23-24.95-.35-7.25-4.33-11.6-12.18-11.03-7.43,.54-9.56,5.37-9.85,12-.37,8.72,1.15,17.53-1.06,26.17-5.94,2.65-10.72-.64-15.67-3.06Z"/><path class="cls-1" d="M342.51,106.59c-1.68,0-3.35,0-5.03-.01-6.48-2.18-8.26,1.16-8.08,6.85,.25,7.9,.47,15.79,.71,23.69,0,1.66,0,3.32,0,4.98-1.04,7.59-1.14,15.19,0,22.78-.17,1.62-.34,3.23-.51,4.85-4.81,0-9.63,0-14.44,0-.14-1.62-.27-3.24-.41-4.87,.18-15.07-.4-30.21,.78-45.2,1.03-13.14-4.06-16.63-15.86-13.37-2.51-1.69-3.82-4.18-4.62-7,1.16-1.65,1.12-3.32,.08-5,18.29-3.4,36.59-3.79,54.89-.1-.01,2.53-.02,5.07-.03,7.6-1.64,1.57-3.27,3.14-4.91,4.71-.86,.03-1.71,.07-2.57,.1Z"/><path class="cls-1" d="M761.75,171.86c-.27-15.09-.57-30.17-.79-45.26-.04-2.9-.17-7.11,3.76-6.54,13.09,1.9,28.16-5.44,39.04,6.69,10.35,11.53,6.55,26.24,6.8,39.85,.1,5.3-5.42,4.12-8.61,5.55-1.55-.2-3.09-.41-4.64-.61-.16-8.71,.09-17.46-.64-26.13-.47-5.54-1.29-12.04-8.91-12.58-7.75-.54-11.34,4.86-12.42,11.35-1.01,6.08-.98,12.45-.51,18.62,.5,6.46-2.31,9.11-8.25,9.51-1.61-.15-3.21-.3-4.82-.44Z"/><path class="cls-1" d="M437.61,132.42c5.23,22.74,1.89,30.72-16.85,40.25-1.68,.03-3.36,.06-5.04,.09-5.36-.15-8.81-4.71-13.43-6.06-10.89-3.19-13.85-11.34-13.99-21.02-.15-10.49,5.3-17.94,14.25-23.37,9.19-5.57,17.28,.59,25.86,1.59,3.06,2.84,6.13,5.68,9.19,8.52Zm-9.42,13.24c-1.57-6.69-4.18-12.9-13.06-13.52-9.73-.68-13.94,5.27-14.16,13.57-.22,8.01,4.79,13.64,13.01,13.86,8.27,.23,12.57-5.36,14.22-13.91Z"/><path class="cls-1" d="M466.43,132.02c-.33,13.83-.51,27.66-1.05,41.48-.41,10.42-5.02,18.49-14.75,23-2.78,1.29-6.46,4.72-8.73,1.38-2.17-3.18-3.63-9.83-.41-11.71,13.56-7.93,8.61-20.55,9.1-31.61,.45-10.02-.37-20.1-.63-30.15,.42-1.57,.85-3.13,1.27-4.7,4.65,.05,9.3,.1,13.95,.15,.42,4.05,.84,8.1,1.26,12.15Z"/><path class="cls-1" d="M383.92,121.92c-1.29,3.02-1.97,8.13-3.98,8.72-17.17,5.05-12.38,18.87-13.04,30.59-.18,3.28-.7,6.54-1.06,9.81,0,0-.38,.23-.38,.23-3.53-.87-7-.85-10.42,.52-4.47-6.94-.73-14.89-2.72-22.14-.01-8.39-.02-16.79-.03-25.18,1.11-3.05,2.55-7.91,5.95-6.3,8.38,3.98,17.7-1.04,25.67,3.74Z"/><path class="cls-1" d="M824.79,170.6c-.19-14.55-.37-29.11-.56-43.66,.35-2.42,.69-4.85,1.04-7.27,11.99-1.89,15.17,3.86,14.13,14.93-.85,9.12-.4,18.4,.05,27.58,.28,5.67-2.25,8.51-7.22,9.98-2.48-.52-4.96-1.04-7.44-1.57Z"/><path class="cls-1" d="M729.27,120.35c11.86-3.31,16.48,.77,15.44,13.34-.99,12.01-.25,24.16-.27,36.24-1.03,.82-2.06,1.63-3.09,2.45l-2.53,.03c-1.68-.04-3.36-.08-5.04-.12-5.25-2.67-4-7.56-4.11-11.99-.32-12.78-.65-25.56-.97-38.34,.59-.4,.78-.94,.57-1.62Z"/><path class="cls-1" d="M746.16,106.83c-3.58,9.23-10.36,7.69-17.43,5.16-6.45-6.85-1.52-11.63,3.93-14.17,8.11-3.79,11.84,1.7,13.5,9.02Z"/><path class="cls-1" d="M467.02,104.26c-.57,2.41-1.14,4.81-1.71,7.22-4.64,3.06-9.43,2.48-14.27,.57-2.79-4.85-4.26-10.48,.81-13.91,5.22-3.53,10.89-1.88,14.78,3.62,.13,.83,.26,1.66,.39,2.49Z"/><path class="cls-1" d="M827.31,97.51c4.88-1.29,9.46-1,11.82,4.12,1.44,3.11,.98,6.47-1.54,9.34-5.01,5.72-10.11,.24-15.15,.28-.59-5.36-1.39-10.79,4.86-13.73Z"/><path class="cls-1" d="M91.96,243.07c0-5.04-.64-10.17,.11-15.1,3.37-21.92-3.88-39.57-19.24-55.28-10.6-10.84-19.51-23.36-28.85-35.38-3.9-5.01-7.35-7.3-14.5-5.65-13.02,3.02-22.21-2.88-27.75-15.95-4.44-10.48,.33-18.94,7.26-26.15,6.97-7.26,20.96-8.35,29.12-2.68,9.98,6.94,14.71,16.41,9.98,28.25-2.52,6.32-.28,10.33,3.36,14.68,15.47,18.47,30.9,36.99,46.33,55.49,3.55,4.25,5.96,8.66,5.89,14.69-.3,28.12-.02,56.26-.34,84.38-.05,4.28,2.54,11.44-5.5,11.59-8.12,.15-5.7-6.91-5.81-11.33-.33-13.85-.12-27.7-.12-41.56h.06ZM23.99,122.48c8.25-.66,14.53-4.46,14.91-13.49,.39-9.38-5.12-15.07-14.45-15.27-8.87-.18-14.14,5.24-14.37,14.04-.23,8.79,4.52,14,13.92,14.72Z"/></g></g></g></svg>