<?xml version="1.0" encoding="UTF-8"?><svg id="Layer_2" xmlns="http://www.w3.org/2000/svg" viewBox="0 0 30.08 30.08"><defs><style>.cls-1{fill:#f7931a;stroke-width:0px;}</style></defs><g id="Layer_1-2"><path class="cls-1" d="m23.95,14.96c0-.17,0-.34-.01-.51l.78-.12v-.19s-.81-.02-.81-.02c-.02-.16-.03-.33-.06-.49l.78-.19-.03-.19-.81.06c-.03-.15-.06-.3-.1-.45l.77-.27-.05-.18-.81.13c-.04-.14-.08-.29-.13-.43l.75-.34-.06-.18-.8.21c-.05-.14-.11-.27-.17-.41l.72-.41-.08-.17-.78.28c-.06-.13-.13-.26-.2-.38l.69-.47-.09-.16-.76.35c-.07-.12-.15-.24-.23-.36l.64-.53-.11-.16-.72.41c-.08-.12-.17-.23-.26-.34l.59-.58-.12-.15-.68.47c-.09-.11-.19-.21-.28-.32l.53-.63-.13-.13-.63.52c-.1-.1-.21-.2-.31-.3l.47-.66-.14-.12-.57.57c-.11-.09-.22-.18-.34-.27l.4-.69-.15-.11-.51.61c-.12-.08-.24-.17-.37-.25l.33-.71-.16-.1-.45.63c-.13-.08-.26-.15-.39-.22l.27-.72-.17-.08-.38.66c-.14-.07-.28-.13-.42-.19l.2-.72-.18-.07-.32.67c-.15-.05-.3-.11-.45-.15l.13-.72-.18-.05-.25.68c-.16-.04-.32-.08-.48-.12l.06-.71-.19-.03-.19.68c-.17-.03-.33-.05-.5-.07v-.7s-.19-.02-.19-.02l-.12.68c-.19-.02-.38-.03-.57-.03l-.06-.68h-.19l-.06.68c-.19,0-.38.01-.57.02l-.12-.68-.19.02v.69c-.17.02-.34.04-.5.07l-.18-.67-.19.03.06.7c-.16.03-.32.07-.48.11l-.24-.66-.18.05.13.7c-.15.05-.31.1-.46.15l-.31-.65-.18.07.19.7c-.15.06-.29.12-.43.19l-.37-.63-.17.08.25.69c-.14.07-.27.14-.4.22l-.43-.6-.16.1.32.67c-.13.08-.25.16-.38.25l-.49-.57-.15.11.38.65c-.12.09-.24.18-.35.28l-.54-.54-.14.12.44.62c-.11.1-.22.2-.32.3l-.59-.49-.13.13.5.59c-.1.11-.2.22-.29.33l-.63-.44-.12.15.55.54c-.09.11-.18.23-.27.35l-.67-.38-.11.16.59.49c-.08.12-.16.25-.24.37l-.7-.32-.09.16.63.44c-.07.13-.14.26-.21.4l-.72-.26-.08.17.67.38c-.06.14-.12.28-.17.42l-.74-.19-.06.18.69.31c-.05.15-.1.3-.14.45l-.74-.12-.05.18.71.25c-.04.16-.07.31-.1.47l-.74-.05-.03.19.71.18c-.03.17-.05.34-.06.51l-.72.02v.19s.7.11.7.11c0,.17-.02.34-.02.52,0,.02,0,.03,0,.05l-.71.08v.19s.72.04.72.04c0,.18.02.36.04.54l-.7.15.02.19.72-.02c.02.16.05.33.08.49l-.69.21.04.19.71-.09c.04.16.08.31.12.47l-.67.27.06.18.7-.15c.05.15.1.3.16.45l-.64.33.07.18.69-.21c.06.14.13.28.19.42l-.61.39.09.17.67-.27c.07.14.15.27.23.4l-.58.44.1.16.65-.33c.08.13.17.25.26.38l-.54.49.11.15.61-.39c.09.12.19.24.29.35l-.49.53.13.14.58-.44c.1.11.21.22.32.33l-.45.57.14.13.54-.48c.11.1.23.2.35.3l-.39.6.15.12.49-.53c.12.09.25.18.37.27l-.34.63.16.1.44-.56c.13.08.26.16.4.24l-.28.66.17.09.39-.6c.14.07.28.14.42.2l-.22.67.17.07.33-.63c.15.06.29.12.44.17l-.16.69.18.06.28-.65c.15.05.31.09.47.13l-.1.69.18.04.22-.66c.16.03.32.07.49.09l-.03.69.19.03.15-.68c.18.02.35.04.53.05l.03.69h.19s.09-.67.09-.67c.08,0,.17,0,.25,0,.11,0,.21,0,.32,0l.09.68h.19s.03-.7.03-.7c.18-.01.35-.03.53-.05l.16.68.19-.03-.03-.7c.16-.03.32-.06.48-.09l.22.68.18-.04-.1-.71c.16-.04.31-.09.46-.13l.28.67.18-.06-.17-.71c.15-.05.29-.11.44-.17l.35.65.17-.07-.23-.7c.14-.06.28-.13.41-.2l.41.63.17-.09-.3-.69c.13-.08.26-.15.39-.23l.47.59.16-.1-.36-.67c.12-.09.24-.17.36-.26l.52.56.15-.12-.42-.64c.11-.09.23-.19.34-.29l.57.52.14-.13-.48-.61c.11-.1.21-.21.31-.32l.62.47.13-.14-.53-.57c.1-.11.19-.23.28-.34l.66.42.11-.15-.58-.53c.09-.12.17-.24.25-.37l.7.36.1-.16-.63-.48c.08-.13.15-.26.22-.39l.73.3.09-.17-.67-.42c.07-.13.13-.27.19-.41l.75.23.07-.18-.7-.36c.05-.14.1-.28.15-.43l.77.17.06-.18-.73-.3c.04-.15.08-.3.11-.45l.78.1.04-.19-.76-.23c.03-.16.05-.31.08-.47l.79.02.02-.19-.77-.16c.02-.17.03-.34.04-.52l.78-.05v-.19s-.78-.09-.78-.09c0-.01,0-.03,0-.04Zm-8.4,8.69h-.27s0,.01,0,.01c-.1,0-.19,0-.29,0-.07,0-.14,0-.22,0h0s-.35-.02-.35-.02h0c-4.54-.29-8.14-4.08-8.14-8.69s3.38-8.16,7.72-8.65h0s.35-.03.35-.03h0c.17-.02.33-.02.5-.03h0s.35,0,.35,0h0c4.7.11,8.5,3.97,8.5,8.7s-3.61,8.4-8.16,8.69Z"/><path class="cls-1" d="m14.96,7.01c-4.39,0-7.95,3.56-7.95,7.95s3.56,7.95,7.95,7.95,7.95-3.56,7.95-7.95-3.56-7.95-7.95-7.95Zm5.42,2.86l-.6.56c-.09-.09-.18-.18-.27-.27l.56-.6c.1.1.21.2.3.3Zm-.63-.59l-.53.63c-.1-.08-.2-.16-.3-.24l.49-.66c.11.09.23.18.34.27Zm-.69-.51l-.45.69c-.11-.07-.22-.14-.33-.2l.41-.71c.12.07.25.15.37.23Zm-1.14-.61c.13.06.26.12.39.18l-.37.73c-.11-.06-.23-.11-.35-.16l.32-.75Zm-.81-.29c.14.04.27.09.41.13l-.28.77c-.12-.04-.24-.08-.36-.12l.23-.79Zm-.84-.2c.14.02.28.05.42.09l-.19.8c-.12-.03-.25-.05-.37-.08l.14-.81Zm-.85-.1c.14,0,.29.02.43.04l-.09.81c-.13-.01-.25-.03-.38-.03l.05-.82Zm.06,1.82s.54,1.58.4,1.88c-.03.06-.18.25-.3.38,0,.11,0,.22,0,.35h-.28c0-.12.01-.24.02-.35-.11-.13-.26-.32-.29-.39-.13-.3.44-1.87.44-1.87Zm-.49-1.83v.82c-.13,0-.25,0-.38.01l-.05-.82c.14,0,.29-.01.43-.01Zm-1.92,9.37h.85s.02.82.02.82h-1.06l.19-.82Zm-.19-4.77h.92v.82h-.73l-.19-.82Zm1.06,3.04h-.65v-.79h1.74l-.04.79h-1.04Zm.47-5.21c.09.08.12.97.12,2.17v.82c-.01.4-.02.83-.03,1.25h-.49c0-.43-.02-.85-.02-1.25v-.82c0-1.2.03-2.09.12-2.17.07-.05.23-.05.29,0Zm-.28-2.38l.1.81c-.13.01-.25.03-.38.06l-.14-.81c.14-.02.28-.05.43-.06Zm-.85.15l.19.8c-.12.03-.25.06-.37.1l-.24-.79c.14-.04.28-.08.42-.11Zm-.82.25l.28.77c-.12.04-.24.09-.35.14l-.33-.75c.13-.06.26-.11.4-.16Zm-.79.34l.37.73c-.11.06-.23.12-.34.18l-.41-.71c.12-.07.25-.14.38-.2Zm-.74.43l.45.68c-.11.07-.21.14-.31.22l-.49-.66c.11-.09.23-.17.35-.25Zm-.69.51l.53.63c-.1.08-.19.17-.29.25l-.56-.6c.1-.1.21-.19.32-.29Zm-.62.59l.6.56c-.09.09-.17.19-.25.29l-.63-.53c.09-.11.19-.22.29-.32Zm-.55.66l.66.49c-.08.1-.15.21-.22.31l-.69-.45c.08-.12.16-.24.25-.35Zm-.47.72l.71.41c-.06.11-.12.22-.18.34l-.73-.37c.06-.13.13-.26.2-.38Zm-.39.77l.75.32c-.05.12-.1.24-.14.36l-.77-.28c.05-.13.1-.27.16-.4Zm-.29.81l.79.23c-.04.12-.07.25-.1.37l-.8-.19c.03-.14.07-.28.11-.42Zm-.2.84l.81.14c-.02.12-.04.25-.05.38l-.81-.09c.02-.14.04-.29.06-.43Zm-.11,1.27c0-.14,0-.28.01-.42l.82.05c0,.12-.01.25-.01.37h0s-.82,0-.82,0h0Zm.01.44l.82-.05c0,.13.02.26.03.38l-.81.1c-.02-.14-.03-.29-.04-.43Zm.1.85l.81-.14c.02.12.05.25.08.37l-.8.19c-.03-.14-.06-.28-.09-.42Zm.2.84l.79-.24c.04.12.08.24.12.36l-.77.28c-.05-.13-.09-.27-.14-.41Zm.29.81l.75-.33c.05.12.1.23.16.35l-.73.37c-.06-.13-.13-.26-.18-.39Zm.39.77l.71-.41c.06.11.13.22.2.32l-.68.45c-.08-.12-.15-.24-.23-.37Zm.47.72l.66-.49c.08.1.16.2.24.3l-.63.53c-.09-.11-.18-.22-.27-.34Zm.55.66l.6-.56c.09.09.18.18.27.27l-.56.6c-.1-.1-.21-.2-.3-.3Zm.63.59l.53-.63c.1.08.2.16.3.24l-.49.66c-.11-.09-.23-.18-.34-.27Zm.69.51l.45-.68c.11.07.21.14.33.2l-.41.71c-.12-.07-.25-.15-.37-.23Zm1.14.61c-.13-.06-.26-.12-.39-.18l.37-.73c.11.06.23.11.35.16l-.32.75Zm.81.29c-.14-.04-.27-.09-.41-.13l.28-.77c.12.04.24.08.36.12l-.23.79Zm.84.2c-.14-.02-.28-.05-.42-.09l.19-.8c.12.03.25.05.37.08l-.14.81Zm.85.1c-.14,0-.29-.02-.43-.04l.09-.81c.13.01.25.03.38.03l-.05.82Zm-.31-1.81s-.55-1.57-.42-1.87c.03-.06.18-.25.29-.38,0-.16-.01-.34-.02-.52l-.03-.83c-.02-.48-.03-1.01-.05-1.54h.44c-.01.54-.03,1.06-.04,1.54l-.03.83c0,.18-.01.36-.02.52.11.13.26.32.29.38.14.3-.42,1.87-.42,1.87Zm.74,1.83v-.82c.13,0,.26,0,.38-.01l.05.82c-.14,0-.29.01-.43.01Zm.5-2.43c-.07.05-.23.05-.29,0-.08-.07-.11-.84-.1-1.91h.54c-.02,1.07-.06,1.85-.15,1.91Zm-.39-2.17h-.53l.02-.83h1.2c.38,0,.65-.08.82-.23.17-.16.25-.37.25-.64s-.09-.47-.26-.62c-.16-.14-.41-.22-.75-.23l-.02-.8c.25-.02.43-.08.55-.19.14-.13.21-.31.21-.54,0-.24-.08-.42-.23-.53-.16-.11-.41-.17-.75-.17h-.92v-.82h1.26c.68,0,1.19.12,1.52.37.33.24.49.58.49,1,0,.32-.08.58-.25.78-.17.2-.42.34-.74.42.31.06.55.16.74.29.19.14.33.3.42.5.09.2.13.41.13.65,0,.31-.08.59-.23.83-.15.24-.39.42-.71.56-.32.13-.74.2-1.25.2h-.95Zm.06-2.55l.03-.79h0c.02-.43.03-.85.05-1.25h.36c0,.4.02.82.02,1.25h0s.01.79.01.79c0,.52.01,1.03.01,1.52h-.53c.01-.49.03-1.01.04-1.52h0Zm.69,7.1l-.1-.81c.13-.01.25-.03.38-.06l.14.81c-.14.02-.28.05-.43.06Zm.85-.15l-.19-.8c.12-.03.25-.06.37-.1l.24.79c-.14.04-.28.08-.42.11Zm.82-.25l-.28-.77c.12-.04.24-.09.35-.14l.33.75c-.13.06-.26.11-.4.16Zm.79-.34l-.37-.73c.11-.06.23-.12.34-.18l.41.71c-.12.07-.25.14-.38.2Zm.74-.43l-.45-.68c.11-.07.21-.14.31-.22l.49.66c-.11.09-.23.17-.35.25Zm.69-.51l-.53-.63c.1-.08.19-.17.29-.25l.56.6c-.1.1-.21.19-.32.29Zm.62-.59l-.6-.56c.09-.09.17-.19.25-.29l.63.53c-.09.11-.19.22-.29.32Zm.55-.66l-.66-.49c.08-.1.15-.21.22-.31l.68.45c-.08.12-.16.24-.25.35Zm.47-.72l-.71-.41c.06-.11.12-.22.18-.34l.73.37c-.06.13-.13.26-.2.38Zm.39-.77l-.75-.33c.05-.12.1-.24.14-.36l.77.28c-.05.13-.1.27-.16.4Zm.29-.81l-.79-.24c.04-.12.07-.25.1-.37l.8.19c-.03.14-.07.28-.11.42Zm.2-.84l-.81-.14c.02-.12.04-.25.05-.38l.81.09c-.02.14-.04.29-.06.43Zm.11-1.28c0,.14,0,.29-.01.43l-.82-.05c0-.13.01-.26.01-.38v-.02h.82v.02Zm-.01-.45l-.82.05c0-.13-.02-.26-.03-.38l.81-.1c.02.14.03.29.04.43Zm-.1-.85l-.81.14c-.02-.12-.05-.25-.08-.37l.8-.19c.03.14.06.28.09.42Zm-.2-.84l-.79.24c-.04-.12-.08-.24-.12-.36l.77-.28c.05.13.1.27.14.41Zm-.3-.81l-.75.33c-.05-.12-.1-.23-.16-.35l.73-.37c.07.13.13.26.18.39Zm-.39-.77l-.71.41c-.06-.11-.13-.22-.2-.32l.68-.45c.08.12.16.24.23.37Zm-.47-.72l-.66.49c-.08-.1-.16-.2-.24-.3l.63-.53c.09.11.18.22.27.34Z"/><path class="cls-1" d="m14.97,1.03C7.28,1.03,1.03,7.28,1.03,14.97s6.26,13.94,13.94,13.94,13.94-6.26,13.94-13.94S22.66,1.03,14.97,1.03Zm0,27.73c-7.6,0-13.78-6.18-13.78-13.78S7.37,1.19,14.97,1.19s13.78,6.18,13.78,13.78-6.18,13.78-13.78,13.78Z"/><path class="cls-1" d="m14.95,6.58c-4.63,0-8.4,3.77-8.4,8.4s3.77,8.4,8.4,8.4,8.4-3.77,8.4-8.4-3.77-8.4-8.4-8.4Zm0,16.67c-4.56,0-8.26-3.71-8.26-8.26s3.71-8.26,8.26-8.26,8.26,3.71,8.26,8.26-3.71,8.26-8.26,8.26Z"/><path class="cls-1" d="m15.04,0C6.75,0,0,6.75,0,15.04s6.75,15.04,15.04,15.04,15.04-6.75,15.04-15.04S23.33,0,15.04,0Zm0,29.34C7.15,29.34.74,22.92.74,15.04S7.15.74,15.04.74s14.3,6.42,14.3,14.3-6.42,14.3-14.3,14.3Z"/><path class="cls-1" d="m27.97,16.2l.03-.55-2.26-.21c0-.16.01-.32.01-.49,0-.15,0-.29,0-.44l2.24-.28-.05-.55-2.24.11c-.03-.27-.07-.53-.11-.79l2.17-.57-.12-.54-2.2.41c-.06-.26-.14-.51-.22-.76l2.08-.85-.19-.52-2.14.69c-.1-.24-.21-.48-.32-.71l1.97-1.11-.25-.49-2.06.97c-.13-.22-.27-.44-.41-.65l1.84-1.37-.31-.45-1.96,1.24c-.15-.2-.32-.39-.48-.57l1.7-1.63-.36-.41-1.84,1.51c-.17-.17-.35-.33-.54-.49l1.52-1.88-.41-.36-1.68,1.79c-.19-.14-.38-.27-.58-.4l1.29-2.12-.46-.3-1.47,2.05c-.2-.11-.4-.21-.61-.31l1.02-2.34-.49-.24-1.21,2.29c-.21-.08-.41-.15-.62-.22l.69-2.52-.52-.16-.88,2.48c-.21-.05-.43-.1-.65-.13l.31-2.63-.54-.08-.51,2.61c-.24-.03-.49-.04-.74-.05l-.1-2.65h-.55l-.1,2.65c-.25,0-.49.02-.74.05l-.51-2.61-.54.08.31,2.63c-.22.04-.43.08-.65.13l-.88-2.48-.52.16.69,2.52c-.21.07-.42.14-.63.22l-1.21-2.29-.49.24,1.02,2.34c-.21.1-.41.2-.61.31l-1.47-2.05-.46.3,1.29,2.12c-.2.13-.39.26-.58.4l-1.68-1.79-.41.36,1.52,1.88c-.18.16-.36.32-.54.49l-1.84-1.51-.36.41,1.7,1.63c-.17.18-.33.37-.48.57l-1.96-1.24-.31.45,1.84,1.37c-.14.21-.28.43-.41.65l-2.06-.97-.25.49,1.97,1.11c-.12.23-.22.47-.32.71l-2.14-.69-.19.52,2.08.85c-.08.25-.16.5-.22.76l-2.2-.41-.12.54,2.17.57c-.05.26-.09.52-.11.79l-2.24-.11-.05.55,2.24.28c0,.14,0,.29,0,.44,0,.16,0,.33.01.49l-2.26.21.03.55,2.29-.03c.03.27.07.53.12.79l-2.25.53.11.54,2.3-.36c.06.24.14.48.22.72l-2.19.86.18.52,2.27-.7c.09.22.19.44.3.66l-2.09,1.17.25.49,2.19-1.02c.12.2.24.4.37.59l-1.94,1.46.31.45,2.06-1.32c.14.18.29.36.44.53l-1.74,1.73.37.4,1.88-1.6c.16.16.33.31.5.46l-1.51,1.96.42.35,1.66-1.85c.18.14.37.27.56.39l-1.24,2.16.47.29,1.4-2.06c.2.11.4.22.61.32l-.94,2.31.5.22,1.11-2.24c.22.09.44.17.66.24l-.61,2.42.53.15.79-2.37c.24.06.47.11.72.16l-.26,2.47.54.08.45-2.45c.27.03.55.05.82.06l.09,2.47h.55l.09-2.47c.28,0,.55-.03.82-.06l.44,2.45.54-.08-.26-2.47c.24-.04.48-.1.72-.16l.79,2.37.53-.15-.61-2.42c.22-.07.44-.15.66-.24l1.11,2.24.5-.22-.94-2.31c.21-.1.41-.21.61-.32l1.4,2.06.47-.29-1.24-2.16c.19-.13.38-.26.56-.39l1.66,1.85.42-.35-1.51-1.96c.17-.15.34-.3.5-.46l1.88,1.6.37-.4-1.74-1.73c.15-.17.3-.35.44-.53l2.06,1.32.31-.45-1.94-1.46c.13-.19.25-.39.37-.59l2.19,1.02.25-.49-2.09-1.17c.11-.22.21-.43.3-.66l2.27.7.18-.52-2.19-.86c.08-.24.15-.48.22-.72l2.3.36.11-.54-2.25-.53c.05-.26.09-.52.12-.79l2.29.03Zm-12.97,9.02c-5.66,0-10.26-4.6-10.26-10.26,0-.67.06-1.32.19-1.95l.14-.61h0c.08-.32.18-.62.29-.93l.03-.08c1.45-3.91,5.22-6.7,9.62-6.7s8.18,2.79,9.63,6.71l.03.07c.11.3.21.62.29.93h0s.14.6.14.6c.12.63.19,1.28.19,1.95,0,5.66-4.6,10.26-10.26,10.26Z"/></g></svg>